<?xml version="1.0" encoding="utf-8"?>
<!-- Generator: Adobe Illustrator 20.1.0, SVG Export Plug-In . SVG Version: 6.00 Build 0)  -->
<svg version="1.1" id="Layer_1" xmlns="http://www.w3.org/2000/svg" xmlns:xlink="http://www.w3.org/1999/xlink" x="0px" y="0px"
	 viewBox="0 0 32 32" style="enable-background:new 0 0 32 32;" xml:space="preserve">
<style type="text/css">
	.st0{fill:#B22729;}
</style>
<g>
	<path class="st0" d="M16.1,32H16c-0.1-0.1-0.2-0.2-0.4-0.2c-4-2.1-7.9-4.3-11.9-6.4c-0.3-0.1-0.4-0.3-0.4-0.6
		c-0.3-1.6-0.5-3.3-0.8-4.9c-0.7-3.9-1.3-7.7-2-11.6C0.3,7.4,0.1,6.7,0,5.9c0-0.1,0-0.1,0-0.2C5.2,3.8,10.4,2,15.6,0.1
		c0.2-0.1,0.5-0.1,0.7,0c4.2,1.5,8.3,3,12.5,4.5c1,0.4,2.1,0.7,3.1,1.1c0,0.1,0,0.1,0,0.2c-0.5,2.9-1,5.7-1.5,8.6
		c-0.6,3.4-1.2,6.9-1.7,10.3c0,0.3-0.1,0.4-0.4,0.5c-3.9,2.1-7.7,4.2-11.6,6.2C16.6,31.7,16.3,31.8,16.1,32z M2.6,7.2
		C2.6,7.3,2.6,7.3,2.6,7.2C3.5,12.6,4.4,18,5.3,23.3c0,0.2,0.1,0.4,0.4,0.5c3.3,1.8,6.7,3.6,10,5.4c0.2,0.1,0.4,0.1,0.7,0
		c3.2-1.7,6.3-3.4,9.5-5.1c0.6-0.3,0.8-0.7,0.9-1.4c0.6-3.7,1.2-7.4,1.9-11.2c0.2-1.5,0.5-2.9,0.7-4.4c-0.1,0-0.2-0.1-0.2-0.1
		c-4.3-1.6-8.6-3.2-13-4.8c-0.2-0.1-0.4,0-0.5,0C12.3,3.6,8.9,4.9,5.5,6.1C4.5,6.5,3.5,6.8,2.6,7.2z"/>
	<path class="st0" d="M25.1,22.8c-0.9,0-1.8,0-2.7,0c-0.1,0-0.2-0.1-0.3-0.3c-0.6-1.1-1.1-2.3-1.6-3.4c-0.1-0.2-0.2-0.3-0.4-0.3
		c-2.7,0-5.5,0-8.2,0c-0.2,0-0.3,0.1-0.4,0.3c-0.5,1.2-1.1,2.3-1.6,3.5c-0.1,0.2-0.2,0.3-0.5,0.3c-0.8,0-1.7,0-2.5,0
		C10,16.2,13,9.6,16,2.9C19.1,9.5,22.1,16.2,25.1,22.8z M19,16c-1-2.1-2-4.2-3-6.4c-1,2.2-2,4.3-3,6.4C15,16,17,16,19,16z"/>
</g>
</svg>
