<?xml version="1.0" encoding="utf-8"?>
<!-- Generator: Adobe Illustrator 20.1.0, SVG Export Plug-In . SVG Version: 6.00 Build 0)  -->
<svg version="1.1" id="Layer_1" xmlns="http://www.w3.org/2000/svg" xmlns:xlink="http://www.w3.org/1999/xlink" x="0px" y="0px"
	 viewBox="0 0 32 32" style="enable-background:new 0 0 32 32;" xml:space="preserve">
<style type="text/css">
	.st0{fill:#EC9B40;}
</style>
<g>
	<g>
		<path class="st0" d="M10.4,20.5H8.3l-0.4,1.4H6.6L8.8,15h1.1l2.2,6.9h-1.3L10.4,20.5z M8.6,19.3h1.5l-0.7-2.6L8.6,19.3z"/>
		<path class="st0" d="M17.1,19.9l0.8-4.9h1.2l-1.3,6.9h-1.2l-1-4.6l-1,4.6h-1.2L12.1,15h1.2l0.8,4.9l1-4.9h1L17.1,19.9z"/>
		<path class="st0" d="M22.8,20.1c0-0.3-0.1-0.5-0.2-0.6c-0.2-0.1-0.5-0.3-0.9-0.5c-0.4-0.2-0.8-0.3-1-0.5c-0.7-0.4-1-1-1-1.7
			c0-0.4,0.1-0.7,0.3-1c0.2-0.3,0.4-0.5,0.8-0.7c0.3-0.2,0.7-0.2,1.1-0.2c0.4,0,0.8,0.1,1.1,0.3c0.3,0.2,0.6,0.4,0.8,0.8
			c0.2,0.3,0.3,0.7,0.3,1.1h-1.2c0-0.3-0.1-0.6-0.3-0.7c-0.2-0.2-0.4-0.3-0.7-0.3c-0.3,0-0.5,0.1-0.7,0.2c-0.2,0.1-0.2,0.3-0.2,0.6
			c0,0.2,0.1,0.4,0.3,0.6c0.2,0.2,0.5,0.3,0.8,0.4c0.7,0.2,1.2,0.5,1.5,0.9c0.3,0.4,0.5,0.8,0.5,1.3c0,0.6-0.2,1.1-0.6,1.4
			C23,21.8,22.5,22,21.9,22c-0.5,0-0.9-0.1-1.2-0.3c-0.4-0.2-0.7-0.5-0.8-0.8c-0.2-0.3-0.3-0.7-0.3-1.2h1.2c0,0.8,0.4,1.1,1.2,1.1
			c0.3,0,0.5-0.1,0.7-0.2C22.7,20.5,22.8,20.3,22.8,20.1z"/>
	</g>
	<path class="st0" d="M14.9,26.3c-2.6,0-5.2,0-7.8,0c-2.8,0-5-1.2-6.3-3.5c-1-1.7-1-3.7,0-5.7c0.7-1.5,1.8-2.6,3.2-3.2
		c0.1-1.6,0.5-3.1,1.4-4.4c1.4-2.1,3.4-3.4,5.9-3.7c3.4-0.5,6.9,1.2,8.6,4.1c0.7-0.3,1.5-0.4,2.3-0.3c2,0.2,3.9,1.9,4.2,3.9
		c2.8,0.7,4.6,2.5,5.3,5.2c0.6,2.6-0.2,4.6-2.5,6.3c-1.2,0.9-2.7,1.3-4.3,1.3l-3.6,0C19.2,26.3,17.1,26.3,14.9,26.3z M12.6,7.6
		c-0.3,0-0.6,0-1,0.1c-2,0.3-3.5,1.3-4.7,2.9c-0.7,1-1.1,2.2-1.1,3.5c0,0.7-0.3,1.2-0.9,1.4c-1.1,0.4-1.9,1.2-2.5,2.4
		c-0.7,1.5-0.8,2.8-0.1,3.9c1,1.7,2.6,2.5,4.7,2.6c4.7,0,9.5,0,14.2,0l3.6,0c1.2,0,2.3-0.3,3.2-1c1.7-1.2,2.3-2.5,1.8-4.3
		c-0.5-2-1.8-3.3-4-3.8c-0.5-0.1-1.3-0.4-1.4-1.5c-0.1-1.1-1.3-2.2-2.5-2.3c-0.8-0.1-1.4,0.1-2.1,0.5l-0.8,0.5l-0.6-0.9
		c-0.1-0.1-0.1-0.2-0.2-0.3C17.4,9,15,7.6,12.6,7.6z"/>
</g>
</svg>
