<?xml version="1.0" encoding="utf-8"?>
<!-- Generator: Adobe Illustrator 20.1.0, SVG Export Plug-In . SVG Version: 6.00 Build 0)  -->
<svg version="1.1" id="Layer_1" xmlns="http://www.w3.org/2000/svg" xmlns:xlink="http://www.w3.org/1999/xlink" x="0px" y="0px"
	 viewBox="0 0 32 32" style="enable-background:new 0 0 32 32;" xml:space="preserve">
<style type="text/css">
	.st0{fill:#654698;}
	.st1{fill:#644699;}
</style>
<g>
	<path class="st0" d="M26.6,2C28.5,2,30,3.5,30,5.4v21.3c0,1.9-1.5,3.4-3.4,3.4H5.4C3.5,30,2,28.5,2,26.6V5.4C2,3.5,3.5,2,5.4,2
		H26.6 M26.6,0H5.4C2.4,0,0,2.4,0,5.4v21.3c0,3,2.4,5.4,5.4,5.4h21.3c3,0,5.4-2.4,5.4-5.4V5.4C32,2.4,29.6,0,26.6,0L26.6,0z"/>
</g>
<g>
	<path class="st1" d="M16.8,8.6c0.7,0,1.3,0.1,1.9,0.2c0.6,0.1,1.1,0.3,1.5,0.6c0.4,0.3,0.7,0.7,1,1.1c0.2,0.5,0.3,1.1,0.3,1.7
		c0,0.7-0.2,1.4-0.5,1.9c-0.3,0.5-0.8,0.9-1.5,1.2c0.9,0.3,1.6,0.7,2,1.4c0.5,0.7,0.7,1.4,0.7,2.4c0,0.7-0.1,1.4-0.4,1.9
		c-0.3,0.5-0.7,1-1.2,1.3c-0.5,0.3-1.1,0.6-1.7,0.8c-0.6,0.2-1.3,0.2-1.9,0.2H9.8V8.6H16.8z M16.4,14.6c0.6,0,1.1-0.1,1.4-0.4
		c0.4-0.3,0.6-0.7,0.6-1.3c0-0.3-0.1-0.6-0.2-0.9c-0.1-0.2-0.3-0.4-0.5-0.5c-0.2-0.1-0.4-0.2-0.7-0.3c-0.3,0-0.6-0.1-0.8-0.1h-3.1
		v3.5H16.4z M16.5,20.9c0.3,0,0.6,0,0.9-0.1c0.3-0.1,0.5-0.2,0.8-0.3c0.2-0.1,0.4-0.3,0.5-0.6c0.1-0.2,0.2-0.6,0.2-1
		c0-0.8-0.2-1.3-0.6-1.6c-0.4-0.3-1-0.5-1.7-0.5h-3.5v4.1H16.5z"/>
</g>
</svg>
