<?xml version="1.0" encoding="utf-8"?>
<!-- Generator: Adobe Illustrator 20.1.0, SVG Export Plug-In . SVG Version: 6.00 Build 0)  -->
<svg version="1.1" id="Layer_1" xmlns="http://www.w3.org/2000/svg" xmlns:xlink="http://www.w3.org/1999/xlink" x="0px" y="0px"
	 viewBox="0 0 32 32" style="enable-background:new 0 0 32 32;" xml:space="preserve">
<style type="text/css">
	.st0{fill:#2870B4;}
</style>
<g>
	<path class="st0" d="M4.6,32c-0.7-0.4-1-0.9-1-1.8c0-9.3,0-18.7,0-28c0-0.2,0-0.3,0-0.5C3.7,0.5,4.2,0,5.3,0c4.6,0,9.2,0.1,13.8,0
		c1.6,0,2.7,0.4,3.8,1.6c1.5,1.7,3.2,3.3,4.9,4.9c0.4,0.4,0.6,0.9,0.6,1.4c0,7.6,0,15.1,0,22.7c0,0.7-0.5,1.1-1,1.4
		C19.8,32,12.2,32,4.6,32z M4.7,21.5c7.6,0,15.1,0,22.5,0c0-4.6,0-9.2,0-13.8c-2.2,0-4.3,0-6.5,0c0-2.2,0-4.4,0-6.6
		c-0.3,0-0.5,0-0.8,0c-4.8,0-9.6,0-14.3,0C4.9,1.1,4.7,1.3,4.7,2c0,6.2,0,12.5,0,18.7C4.7,21,4.7,21.2,4.7,21.5z M27.3,22.7
		c-7.6,0-15.1,0-22.6,0c0,2.4,0,4.8,0,7.2c0,1,0,1,1,1c6.9,0,13.8,0,20.6,0c0.2,0,0.4,0.1,0.5,0c0.2-0.1,0.5-0.3,0.5-0.4
		C27.3,27.9,27.3,25.3,27.3,22.7z M21.8,2.3c0,1.4,0,2.9,0,4.4c1.5,0,3,0,4.4,0C24.7,5.2,23.3,3.7,21.8,2.3z"/>
	<g>
		<path class="st0" d="M12.9,24.7c0.3,0.3,0.5,0.7,0.6,1.1h-0.7c-0.1-0.3-0.2-0.6-0.4-0.8c-0.2-0.2-0.5-0.3-0.9-0.3
			c-0.5,0-0.9,0.2-1.2,0.5s-0.4,0.9-0.4,1.6c0,0.6,0.1,1.1,0.4,1.4c0.3,0.4,0.7,0.5,1.2,0.5c0.5,0,0.9-0.2,1.1-0.6
			c0.1-0.2,0.2-0.5,0.3-0.8h0.7c-0.1,0.5-0.3,1-0.6,1.3c-0.4,0.4-0.9,0.6-1.6,0.6c-0.6,0-1.1-0.2-1.5-0.5c-0.5-0.5-0.8-1.2-0.8-2.2
			c0-0.7,0.2-1.3,0.6-1.8c0.4-0.5,1-0.8,1.7-0.8C12.1,24.2,12.6,24.3,12.9,24.7z"/>
		<path class="st0" d="M14.9,27.7c0,0.3,0.1,0.5,0.2,0.7c0.2,0.3,0.6,0.5,1.1,0.5c0.2,0,0.5,0,0.7-0.1c0.4-0.1,0.6-0.4,0.6-0.8
			c0-0.3-0.1-0.5-0.2-0.6c-0.2-0.1-0.4-0.2-0.8-0.3L15.8,27c-0.4-0.1-0.7-0.2-0.9-0.3c-0.3-0.2-0.5-0.5-0.5-0.9
			c0-0.5,0.2-0.8,0.5-1.1c0.3-0.3,0.7-0.4,1.3-0.4c0.5,0,0.9,0.1,1.3,0.4c0.4,0.3,0.5,0.7,0.5,1.2h-0.6c0-0.3-0.1-0.5-0.2-0.6
			c-0.2-0.3-0.5-0.4-1-0.4c-0.4,0-0.7,0.1-0.8,0.3c-0.2,0.2-0.3,0.4-0.3,0.6c0,0.2,0.1,0.4,0.3,0.5c0.1,0.1,0.4,0.2,0.9,0.3l0.7,0.2
			c0.3,0.1,0.6,0.2,0.8,0.3c0.3,0.2,0.5,0.6,0.5,1c0,0.6-0.2,1-0.6,1.2s-0.9,0.4-1.4,0.4c-0.6,0-1.1-0.2-1.4-0.5
			c-0.3-0.3-0.5-0.7-0.5-1.3H14.9z"/>
		<path class="st0" d="M19.6,27.7c0,0.3,0.1,0.5,0.2,0.7c0.2,0.3,0.6,0.5,1.1,0.5c0.2,0,0.5,0,0.7-0.1c0.4-0.1,0.6-0.4,0.6-0.8
			c0-0.3-0.1-0.5-0.2-0.6c-0.2-0.1-0.4-0.2-0.8-0.3L20.5,27c-0.4-0.1-0.7-0.2-0.9-0.3c-0.3-0.2-0.5-0.5-0.5-0.9
			c0-0.5,0.2-0.8,0.5-1.1c0.3-0.3,0.7-0.4,1.3-0.4c0.5,0,0.9,0.1,1.3,0.4s0.5,0.7,0.5,1.2H22c0-0.3-0.1-0.5-0.2-0.6
			c-0.2-0.3-0.5-0.4-1-0.4c-0.4,0-0.7,0.1-0.8,0.3s-0.3,0.4-0.3,0.6c0,0.2,0.1,0.4,0.3,0.5c0.1,0.1,0.4,0.2,0.9,0.3l0.7,0.2
			c0.3,0.1,0.6,0.2,0.8,0.3c0.3,0.2,0.5,0.6,0.5,1c0,0.6-0.2,1-0.6,1.2s-0.9,0.4-1.4,0.4c-0.6,0-1.1-0.2-1.4-0.5
			c-0.3-0.3-0.5-0.7-0.5-1.3H19.6z"/>
	</g>
	<g>
		<path class="st0" d="M11.3,14.7c0-0.3-0.1-0.6-0.3-0.8c-0.1-0.1-0.3-0.2-0.5-0.3v-0.5c0.3-0.1,0.4-0.2,0.5-0.3
			c0.2-0.2,0.3-0.5,0.3-0.8v-1c0-0.1,0-0.3,0.1-0.4c0.1-0.3,0.2-0.5,0.4-0.6c0.2-0.1,0.4-0.2,0.6-0.3c0.1,0,0.3,0,0.6,0v0.6
			c-0.2,0-0.4,0.1-0.4,0.2c-0.1,0.1-0.2,0.3-0.2,0.6v0.9c0,0.3,0,0.5-0.1,0.7c-0.1,0.3-0.4,0.5-0.8,0.7c0.4,0.1,0.6,0.3,0.7,0.5
			s0.2,0.5,0.2,0.8v1c0,0.3,0.1,0.5,0.2,0.6c0.1,0.1,0.2,0.1,0.4,0.2v0.6l-0.3,0c-0.4,0-0.7-0.1-1-0.3s-0.4-0.5-0.4-0.9V14.7z"/>
	</g>
	<g>
		<path class="st0" d="M19.6,17.2v-0.6c0.2-0.1,0.3-0.1,0.4-0.2c0.1-0.1,0.2-0.3,0.2-0.6v-1c0-0.4,0.1-0.6,0.2-0.8s0.4-0.3,0.7-0.5
			c-0.3-0.2-0.6-0.4-0.7-0.6c-0.1-0.2-0.2-0.5-0.2-0.8v-0.9c0-0.3,0-0.5-0.1-0.6c-0.1-0.1-0.3-0.2-0.5-0.2V9.7c0.3,0,0.5,0,0.6,0
			c0.2,0,0.4,0.1,0.6,0.3s0.3,0.3,0.4,0.5c0.1,0.2,0.1,0.4,0.1,0.5v1c0,0.4,0.1,0.6,0.3,0.8c0.1,0.1,0.3,0.2,0.6,0.3v0.5
			c-0.2,0.1-0.4,0.1-0.5,0.2c-0.2,0.2-0.3,0.4-0.3,0.8v1.2c0,0.4-0.1,0.7-0.4,0.9s-0.6,0.3-1,0.3L19.6,17.2z"/>
	</g>
</g>
</svg>
