<?xml version="1.0" encoding="utf-8"?>
<!-- Generator: Adobe Illustrator 20.1.0, SVG Export Plug-In . SVG Version: 6.00 Build 0)  -->
<svg version="1.1" id="Layer_1" xmlns="http://www.w3.org/2000/svg" xmlns:xlink="http://www.w3.org/1999/xlink" x="0px" y="0px"
	 viewBox="0 0 32 32" style="enable-background:new 0 0 32 32;" xml:space="preserve">
<style type="text/css">
	.st0{fill:#1C98C3;}
</style>
<g>
	<path class="st0" d="M2.7,5.7c0,0.2-0.1,0.3-0.1,0.5c0,0.6,0,1.2,0,1.8c0,0.2,0.1,0.4,0.2,0.6c3.5,3.5,6.9,6.9,10.4,10.4
		c2.2,2.2,4.5,4.5,6.7,6.7c0.3,0.3,0.4,0.5,0.4,0.9c0,0.4-0.3,0.7-0.6,0.8c-0.4,0.1-0.8,0.1-1.1-0.3c-1-1-2.1-2.1-3.1-3.1
		C10.8,19.2,6,14.4,1.2,9.6C0.9,9.3,0.7,8.9,0.7,8.4c0-0.9,0-1.8,0-2.7c0-0.4,0.1-0.7,0.4-1c1.1-1.1,2.2-2.3,3.4-3.4
		C4.7,1.2,5,1.1,5.2,1.1c1.1,0,2.2,0,3.3,0c0.2,0,0.5,0.2,0.7,0.3c2.5,2.4,4.9,4.9,7.3,7.3c3.4,3.4,6.8,6.8,10.2,10.2
		c0.3,0.3,0.5,0.6,0.4,1c-0.1,0.4-0.3,0.7-0.7,0.8c-0.4,0.1-0.7,0-1-0.3c-1.1-1.1-2.2-2.2-3.3-3.3c-4.6-4.6-9.3-9.2-13.9-13.9
		C8.1,3.1,7.9,3,7.6,3C7.1,3,6.5,3,5.9,3C5.8,3,5.6,3,5.4,3.1c0.2,0.2,0.3,0.3,0.5,0.5c6,6,12.1,12.1,18.1,18.1c0,0,0.1,0.1,0.1,0.1
		c0.3,0.3,0.3,0.6,0.1,0.8c-0.2,0.2-0.5,0.2-0.8-0.1c-1.1-1.1-2.2-2.2-3.2-3.2C15.1,14.2,10.1,9.1,5,4.1C5,4,4.9,3.9,4.8,3.8
		C4.4,4.3,4,4.7,3.5,5.2c0.1,0.1,0.3,0.1,0.4,0.2C9.9,11.5,16,17.6,22,23.6c0.1,0.1,0.2,0.1,0.2,0.2c0.2,0.2,0.2,0.5,0,0.7
		c-0.2,0.2-0.5,0.2-0.7-0.1c-0.6-0.6-1.2-1.2-1.9-1.9c-5.5-5.5-11-11-16.6-16.6C3,6,2.9,5.9,2.7,5.7z"/>
	<path class="st0" d="M24.2,2.3c-0.6,0.6-1.3,1.3-2,2c0.2,0.2,0.5,0.4,0.7,0.7c0.5,0.5,0.9,0.9,1.4,1.4c0.3,0.3,0.3,0.6,0.1,0.8
		c-0.2,0.2-0.6,0.2-0.8,0c-0.7-0.7-1.4-1.4-2.1-2.1c-0.6,0.5-1.1,1.1-1.7,1.6c0.6,0.6,1.2,1.2,1.8,1.8c0.1,0.1,0.2,0.2,0.3,0.3
		C22.2,9,22.2,9.4,22,9.6c-0.2,0.2-0.5,0.2-0.8-0.1c-0.5-0.5-1-0.9-1.4-1.4c-0.2-0.2-0.4-0.5-0.7-0.7c-0.4,0.4-0.7,0.8-1,1.1
		c-0.4-0.4-0.8-0.8-1.1-1.2c2.4-2.4,4.9-4.9,7.3-7.3c2.6,2.6,5.2,5.2,7.8,7.8c-2.4,2.4-4.9,4.9-7.3,7.3c-0.3-0.3-0.7-0.7-1.1-1.1
		c2.1-2,4.1-4.1,6.2-6.2C27.9,6,26,4.1,24.2,2.3z"/>
	<path class="st0" d="M0,24.2c2.3-2.3,4.7-4.7,7-7c0.3,0.3,0.7,0.7,1.1,1.1c-0.1,0.1-0.2,0.2-0.3,0.3C8,18.7,8.1,18.8,8.2,19
		c0.6,0.6,1.1,1.1,1.7,1.7c0.3,0.3,0.3,0.6,0.1,0.8c-0.2,0.2-0.6,0.2-0.9-0.1c-0.7-0.7-1.4-1.4-2.1-2.1C6.6,19.9,6,20.5,5.5,21
		c0,0,0.1,0.1,0.1,0.2c0.6,0.6,1.2,1.2,1.8,1.8c0.3,0.3,0.4,0.7,0.1,0.9c-0.2,0.2-0.6,0.2-0.9-0.2c-0.6-0.6-1.2-1.2-1.8-1.8
		c-0.1-0.1-0.2-0.2-0.2-0.2c-0.8,0.8-1.6,1.6-2.4,2.4C4.2,26,6,27.8,7.8,29.7c1.9-1.9,3.9-3.9,5.9-5.9c0.4,0.5,0.8,0.8,1.2,1.2
		c-2.3,2.3-4.7,4.7-7,7C5.2,29.4,2.6,26.8,0,24.2z"/>
	<path class="st0" d="M30,31.1c-0.4-0.1-1-0.2-1.5-0.4c-2.2-0.6-4.5-1.1-6.7-1.7c-0.7-0.2-1-0.5-1-1c0-0.6,0.5-1.1,1.2-1
		c1.4,0.3,2.8,0.7,4.1,1c0.2,0.1,0.4,0,0.5-0.1c0.3-0.4,0.7-0.8,1.1-1.1c0.3-0.2,0.3-0.5,0.2-0.8c-0.4-1.2-0.7-2.4-1.1-3.7
		c-0.2-0.6,0-1,0.4-1.2c0.6-0.3,1.2,0,1.4,0.6c0.5,1.6,0.9,3.2,1.4,4.8c0.3,1.1,0.6,2.2,0.9,3.3C31.3,30.5,30.8,31.1,30,31.1z"/>
</g>
</svg>
