<?xml version="1.0" encoding="utf-8"?>
<!-- Generator: Adobe Illustrator 20.1.0, SVG Export Plug-In . SVG Version: 6.00 Build 0)  -->
<svg version="1.1" id="Layer_1" xmlns="http://www.w3.org/2000/svg" xmlns:xlink="http://www.w3.org/1999/xlink" x="0px" y="0px"
	 viewBox="0 0 32 32" style="enable-background:new 0 0 32 32;" xml:space="preserve">
<style type="text/css">
	.st0{fill:#D9583E;}
</style>
<g id="Git">
	<g id="_Group_">
		<path id="_Path__1_" class="st0" d="M16,1c0.1,0,0.2,0,0.3,0.1l14.5,14.5c0,0,0.1,0.1,0.1,0.1c0.2,0.2,0.2,0.4,0,0.6L16.3,30.9
			C16.2,31,16.1,31,16,31s-0.2,0-0.3-0.1L1.1,16.3c-0.2-0.2-0.2-0.4,0-0.6L15.7,1.1C15.8,1,16,1,16,1L16,1z M16,0
			c-0.4,0-0.7,0.1-1,0.4L0.4,15c-0.5,0.5-0.5,1.4,0,2L15,31.6c0.3,0.3,0.6,0.4,1,0.4s0.7-0.1,1-0.4L31.6,17c0.5-0.5,0.5-1.4,0-2h0
			L17,0.4C16.7,0.1,16.4,0,16,0L16,0z"/>
		<path class="st0" d="M10.9,4.6C10.9,4.6,10.9,4.6,10.9,4.6l0.7,0.7l2.6,2.6c0,0,0,0,0,0c0.1,0.1,0.2,0.1,0.3,0.1
			c0.1,0,0.3,0,0.4-0.1c0.2-0.2,0.2-0.5,0-0.7c0,0,0,0,0,0l-2.6-2.6L11.6,4c0,0-0.1,0-0.1-0.1L10.9,4.6z"/>
		<path class="st0" d="M16,21.4c-0.3,0-0.5-0.2-0.5-0.5v-9.7c0-0.3,0.2-0.5,0.5-0.5s0.5,0.2,0.5,0.5v9.7
			C16.5,21.2,16.3,21.4,16,21.4z"/>
		<path id="_Path_4_1_" class="st0" d="M16,8c0.6,0,1.1,0.5,1.1,1.1s-0.5,1.1-1.1,1.1S14.9,9.6,14.9,9S15.4,8,16,8L16,8z M16,7
			c-1.2,0-2.1,0.9-2.1,2.1s0.9,2.1,2.1,2.1s2.1-0.9,2.1-2.1S17.2,7,16,7L16,7z"/>
		<path id="_Path_5_1_" class="st0" d="M23,14.9c0.6,0,1.1,0.5,1.1,1.1s-0.5,1.1-1.1,1.1s-1.1-0.5-1.1-1.1S22.4,14.9,23,14.9
			L23,14.9z M23,13.9c-1.2,0-2.1,0.9-2.1,2.1c0,1.2,0.9,2.1,2.1,2.1s2.1-0.9,2.1-2.1C25.1,14.9,24.1,13.9,23,13.9L23,13.9z"/>
		<path id="_Path_6_1_" class="st0" d="M16,21.9c0.6,0,1.1,0.5,1.1,1.1s-0.5,1.1-1.1,1.1s-1.1-0.5-1.1-1.1S15.4,21.9,16,21.9
			L16,21.9z M16,20.9c-1.2,0-2.1,0.9-2.1,2.1c0,1.2,0.9,2.1,2.1,2.1s2.1-0.9,2.1-2.1C18.1,21.8,17.2,20.9,16,20.9L16,20.9z"/>
		<path class="st0" d="M21.5,15c-0.1,0-0.3,0-0.4-0.1l-4-4c-0.2-0.2-0.2-0.5,0-0.7s0.5-0.2,0.7,0l4,4c0.2,0.2,0.2,0.5,0,0.7
			C21.7,15,21.6,15,21.5,15z"/>
	</g>
</g>
</svg>
