<?xml version="1.0" encoding="utf-8"?>
<!-- Generator: Adobe Illustrator 20.1.0, SVG Export Plug-In . SVG Version: 6.00 Build 0)  -->
<svg version="1.1" id="Layer_1" xmlns="http://www.w3.org/2000/svg" xmlns:xlink="http://www.w3.org/1999/xlink" x="0px" y="0px"
	 viewBox="0 0 32 32" style="enable-background:new 0 0 32 32;" xml:space="preserve">
<style type="text/css">
	.st0{fill:#E535AB;}
</style>
<g>
	<g>
		<g>
			<rect x="-2.8" y="12" transform="matrix(0.5 -0.866 0.866 0.5 -5.8585 15.2859)" class="st0" width="26.2" height="1.4"/>
		</g>
	</g>
	<g>
		<g>
			<rect x="2.9" y="21.9" class="st0" width="26.2" height="1.4"/>
		</g>
	</g>
	<g>
		<g>
			<rect x="9.6" y="18.3" transform="matrix(0.5 -0.866 0.866 0.5 -17.2341 21.8571)" class="st0" width="1.4" height="15.1"/>
		</g>
	</g>
	<g>
		<g>
			<rect x="21" y="-1.4" transform="matrix(0.5 -0.866 0.866 0.5 5.5127 21.8563)" class="st0" width="1.4" height="15.1"/>
		</g>
	</g>
	<g>
		<g>
			<rect x="2.8" y="5.5" transform="matrix(0.866 -0.5 0.5 0.866 -1.6924 5.9817)" class="st0" width="15.1" height="1.4"/>
		</g>
	</g>
	<g>
		<g>
			<rect x="21" y="-0.4" transform="matrix(0.866 -0.5 0.5 0.866 -3.452 12.5511)" class="st0" width="1.4" height="26.2"/>
		</g>
	</g>
	<g>
		<g>
			<rect x="3.9" y="8.4" class="st0" width="1.4" height="15.1"/>
		</g>
	</g>
	<g>
		<g>
			<rect x="26.7" y="8.4" class="st0" width="1.4" height="15.1"/>
		</g>
	</g>
	<g>
		<g>
			<rect x="15.1" y="25.3" transform="matrix(0.866 -0.5 0.5 0.866 -10.0182 14.3055)" class="st0" width="13.1" height="1.2"/>
		</g>
	</g>
	<path class="st0" d="M29.9,24c-0.8,1.4-2.5,1.8-3.9,1c-1.4-0.8-1.8-2.5-1-3.9c0.8-1.4,2.5-1.8,3.9-1C30.2,20.9,30.6,22.6,29.9,24"
		/>
	<path class="st0" d="M7.1,10.9c-0.8,1.4-2.5,1.8-3.9,1c-1.4-0.8-1.8-2.5-1-3.9S4.7,6.2,6,7C7.4,7.7,7.9,9.5,7.1,10.9"/>
	<path class="st0" d="M2.1,24c-0.8-1.4-0.3-3.1,1-3.9c1.4-0.8,3.1-0.3,3.9,1c0.8,1.4,0.3,3.1-1,3.9C4.7,25.8,2.9,25.4,2.1,24"/>
	<path class="st0" d="M24.9,10.9c-0.8-1.4-0.3-3.1,1-3.9c1.4-0.8,3.1-0.3,3.9,1c0.8,1.4,0.3,3.1-1,3.9
		C27.4,12.7,25.7,12.2,24.9,10.9"/>
	<path class="st0" d="M16,32c-1.6,0-2.9-1.3-2.9-2.9c0-1.6,1.3-2.9,2.9-2.9s2.9,1.3,2.9,2.9C18.9,30.7,17.6,32,16,32"/>
	<path class="st0" d="M16,5.7c-1.6,0-2.9-1.3-2.9-2.9S14.4,0,16,0s2.9,1.3,2.9,2.9S17.6,5.7,16,5.7"/>
</g>
</svg>
