<?xml version="1.0" encoding="utf-8"?>
<!-- Generator: Adobe Illustrator 20.1.0, SVG Export Plug-In . SVG Version: 6.00 Build 0)  -->
<svg version="1.1" id="Layer_1" xmlns="http://www.w3.org/2000/svg" xmlns:xlink="http://www.w3.org/1999/xlink" x="0px" y="0px"
	 viewBox="0 0 32 32" style="enable-background:new 0 0 32 32;" xml:space="preserve">
<style type="text/css">
	.st0{fill:#D86E1C;}
</style>
<g>
	<path class="st0" d="M4.6,32c-0.7-0.4-1-0.9-1-1.8c0-9.3,0-18.7,0-28c0-0.2,0-0.3,0-0.5C3.7,0.5,4.2,0,5.3,0c4.6,0,9.2,0.1,13.8,0
		c1.6,0,2.7,0.4,3.8,1.6c1.5,1.7,3.2,3.3,4.9,4.9c0.4,0.4,0.6,0.9,0.6,1.4c0,7.6,0,15.1,0,22.7c0,0.7-0.5,1.1-1,1.4
		C19.8,32,12.2,32,4.6,32z M4.7,21.5c7.6,0,15.1,0,22.5,0c0-4.6,0-9.2,0-13.8c-2.2,0-4.3,0-6.5,0c0-2.2,0-4.4,0-6.6
		c-0.3,0-0.5,0-0.8,0c-4.8,0-9.6,0-14.3,0C4.9,1.1,4.7,1.3,4.7,2c0,6.2,0,12.5,0,18.7C4.7,21,4.7,21.2,4.7,21.5z M27.3,22.7
		c-7.6,0-15.1,0-22.6,0c0,2.4,0,4.8,0,7.2c0,1,0,1,1,1c6.9,0,13.8,0,20.6,0c0.2,0,0.4,0.1,0.5,0c0.2-0.1,0.5-0.3,0.5-0.4
		C27.3,27.9,27.3,25.3,27.3,22.7z M21.8,2.3c0,1.4,0,2.9,0,4.4c1.5,0,3,0,4.4,0C24.7,5.2,23.3,3.7,21.8,2.3z"/>
	<path class="st0" d="M10.4,13.3c0.9,0.8,1.7,1.6,2.5,2.4c0.2,0.1,0.4,0.3,0.4,0.5c0.1,0.2,0.1,0.5,0.1,0.8c-0.3,0-0.6,0.1-0.8,0
		c-1.1-1-2.2-2.1-3.2-3.2c-0.1-0.2-0.1-0.7,0-0.8c1-1.1,2.1-2.1,3.2-3.2c0.2-0.1,0.6-0.2,0.8-0.1c0.4,0.2,0.2,0.6,0,0.8
		C12.3,11.3,11.4,12.3,10.4,13.3z"/>
	<path class="st0" d="M22.2,13.2c-0.9-0.9-1.7-1.6-2.5-2.4c-0.1-0.1-0.3-0.2-0.4-0.4c-0.1-0.3,0-0.5-0.1-0.8c0.3,0,0.6-0.1,0.8,0
		c1.1,1,2.2,2.1,3.2,3.2c0.1,0.2,0.1,0.7,0,0.8c-1,1.1-2.1,2.1-3.2,3.2c-0.2,0.1-0.5,0.1-0.8,0.1c0-0.3-0.1-0.7,0.1-0.8
		C20.2,15.2,21.1,14.3,22.2,13.2z"/>
	<path class="st0" d="M20.6,26.3c-0.3,0.8-0.6,1.5-0.9,2.3c-0.1,0.2-0.4,0.4-0.5,0.4c-0.2,0-0.5-0.2-0.5-0.4
		c-0.4-0.8-0.7-1.5-1.1-2.3c0,1.1,0,2.2,0,3.4c-0.3,0-0.6,0-0.9,0c0-1.8,0-3.6,0-5.4c0.5-0.2,0.9-0.1,1.1,0.5c0.4,1,0.9,2,1.4,3.2
		c0.5-1.1,0.9-2.1,1.4-3.2c0.2-0.6,0.5-0.8,1.2-0.5c0,1.8,0,3.5,0,5.4c-0.3,0-0.5,0-0.8,0c0-1.2,0-2.3,0-3.4
		C20.8,26.3,20.7,26.3,20.6,26.3z"/>
	<path class="st0" d="M6,24.3c0.3,0,0.5,0,0.8,0c0,0.8,0,1.6,0,2.4c0.8,0,1.6,0,2.4,0c0-0.8,0-1.5,0-2.4c0.3,0,0.6,0,0.9,0
		c0,1.8,0,3.6,0,5.4c-0.3,0-0.5,0-0.8,0c0-0.8,0-1.6,0-2.4c-0.8,0-1.6,0-2.4,0c0,0.8,0,1.6,0,2.4c-0.3,0-0.6,0-0.8,0
		C6,27.9,6,26.1,6,24.3z"/>
	<path class="st0" d="M13,24.9c-0.4,0-0.8,0-1.2,0c-0.2,0-0.3-0.2-0.5-0.3c0.1-0.1,0.3-0.3,0.4-0.3c1.2,0,2.5,0,3.7,0
		c0.1,0.5,0.1,0.5-1.6,0.7c0,1.6,0,3.2,0,4.8c-0.3,0-0.6,0-0.9,0C13,28.1,13,26.5,13,24.9z"/>
	<path class="st0" d="M24,29.1c0.9,0,1.7,0,2.5,0c0.1,0.4,0.1,0.6-0.4,0.6c-1,0-1.9,0-3,0c0-1.8,0-3.6,0-5.5c0.3,0,0.5,0,0.8,0
		C24,25.9,24,27.5,24,29.1z"/>
</g>
</svg>
