<?xml version="1.0" encoding="utf-8"?>
<!-- Generator: Adobe Illustrator 20.1.0, SVG Export Plug-In . SVG Version: 6.00 Build 0)  -->
<svg version="1.1" id="Layer_1" xmlns="http://www.w3.org/2000/svg" xmlns:xlink="http://www.w3.org/1999/xlink" x="0px" y="0px"
	 viewBox="0 0 32 32" style="enable-background:new 0 0 32 32;" xml:space="preserve">
<style type="text/css">
	.st0{fill:#F5DB5D;}
</style>
<g>
	<path class="st0" d="M30,2v28H2V2H30 M32,0H0v32h32V0L32,0z"/>
	<path class="st0" d="M19,26.4c0.8-0.5,1.6-0.9,2.4-1.4c0.2,0.2,0.3,0.4,0.5,0.6c0.9,1.1,2.3,1.4,3.4,1c0.4-0.1,0.7-0.3,0.9-0.7
		c0.4-0.6,0.2-1.3-0.3-1.8c-0.3-0.2-0.6-0.4-0.9-0.6c-0.8-0.4-1.5-0.7-2.3-1c-0.7-0.3-1.3-0.8-1.9-1.3c-0.6-0.7-0.9-1.5-1-2.4
		c-0.1-0.8,0-1.5,0.4-2.2c0.5-0.9,1.2-1.5,2.1-1.9c1.4-0.5,2.8-0.5,4.1,0.1c0.8,0.4,1.7,1.2,2,2c-0.8,0.5-1.5,1-2.3,1.5
		c-0.1-0.2-0.2-0.3-0.3-0.5c-0.5-0.7-1.2-0.9-2-0.8c-0.5,0.1-0.9,0.4-1,0.9c-0.1,0.5,0,1,0.4,1.4c0.3,0.2,0.6,0.4,0.9,0.5
		c0.7,0.3,1.5,0.6,2.2,1c0.8,0.4,1.5,0.8,2,1.5c0.5,0.6,0.8,1.4,0.9,2.2c0.1,0.7,0,1.4-0.2,2.1c-0.4,1.1-1.2,1.8-2.2,2.3
		c-0.9,0.4-1.9,0.5-2.9,0.5c-1,0-1.9-0.2-2.7-0.7c-1-0.5-1.8-1.3-2.4-2.3C19.1,26.5,19,26.5,19,26.4C19,26.4,19,26.4,19,26.4z"/>
	<path class="st0" d="M14.4,14.7c1,0,2,0,3,0c0,0,0,0.1,0,0.1c0,3.3,0,6.7,0,10c0,0.7-0.1,1.5-0.3,2.2c-0.4,1.2-1.3,1.9-2.5,2.3
		c-1.3,0.4-2.5,0.3-3.8-0.2c-1.1-0.4-1.9-1.3-2.4-2.4c0.8-0.5,1.6-1,2.4-1.5c0.2,0.2,0.3,0.5,0.4,0.7c0.3,0.4,0.6,0.7,1.2,0.8
		c0.3,0.1,0.7,0,1-0.1c0.6-0.2,0.8-0.6,0.9-1.1c0-0.2,0.1-0.5,0.1-0.8c0-3.3,0-6.6,0-9.8C14.4,14.9,14.4,14.8,14.4,14.7z"/>
</g>
</svg>
