<?xml version="1.0" encoding="utf-8"?>
<!-- Generator: Adobe Illustrator 20.1.0, SVG Export Plug-In . SVG Version: 6.00 Build 0)  -->
<svg version="1.1" id="Layer_1" xmlns="http://www.w3.org/2000/svg" xmlns:xlink="http://www.w3.org/1999/xlink" x="0px" y="0px"
	 viewBox="0 0 32 32" style="enable-background:new 0 0 32 32;" xml:space="preserve">
<style type="text/css">
	.st0{fill:#539E43;}
</style>
<g>
	<path class="st0" d="M16,32c-0.4,0-0.9-0.1-1.2-0.3l-3.9-2.3c-0.6-0.3-0.3-0.4-0.1-0.5c0.8-0.3,0.9-0.3,1.8-0.8
		c0.1-0.1,0.2,0,0.3,0l3,1.8c0.1,0.1,0.3,0.1,0.4,0l11.7-6.8c0.1-0.1,0.2-0.2,0.2-0.3V9.2c0-0.1-0.1-0.3-0.2-0.3L16.1,2.1
		c-0.1-0.1-0.3-0.1-0.4,0L4.1,8.9C3.9,9,3.9,9.1,3.9,9.2v13.6c0,0.1,0.1,0.3,0.2,0.3l3.2,1.9c1.7,0.9,2.8-0.1,2.8-1.2V10.4
		c0-0.2,0.1-0.4,0.4-0.4h1.5c0.2,0,0.4,0.1,0.4,0.4v13.4c0,2.3-1.3,3.7-3.5,3.7c-0.7,0-1.2,0-2.7-0.7L3,24.9
		c-0.8-0.4-1.2-1.3-1.2-2.1V9.2c0-0.9,0.5-1.7,1.2-2.1l11.7-6.8c0.7-0.4,1.7-0.4,2.5,0L29,7.1c0.8,0.4,1.2,1.3,1.2,2.1v13.6
		c0,0.9-0.5,1.7-1.2,2.1l-11.7,6.8C16.9,31.9,16.4,32,16,32L16,32z M19.6,22.7c-5.1,0-6.2-2.4-6.2-4.4c0-0.2,0.1-0.4,0.4-0.4h1.5
		c0.2,0,0.3,0.1,0.3,0.3c0.2,1.6,0.9,2.3,4,2.3c2.5,0,3.5-0.6,3.5-1.9c0-0.8-0.3-1.3-4.1-1.7c-3.2-0.3-5.2-1-5.2-3.6
		c0-2.4,2-3.8,5.4-3.8c3.8,0,5.6,1.3,5.9,4.1c0,0.1,0,0.2-0.1,0.3c-0.1,0.1-0.1,0.1-0.2,0.1h-1.5c-0.1,0-0.3-0.1-0.3-0.3
		c-0.4-1.6-1.3-2.1-3.7-2.1c-2.7,0-3,0.9-3,1.6c0,0.9,0.4,1.1,4,1.6c3.6,0.5,5.3,1.1,5.3,3.7C25.5,21.2,23.3,22.7,19.6,22.7
		L19.6,22.7z"/>
</g>
</svg>
